<svg viewBox="0 0 1200 1200" shape-rendering="crispEdges" xmlns="http://www.w3.org/2000/svg"><rect x="0" y="125" width="800" height="600" fill="#8a2519" /><rect x="200" y="675" width="600" height="100" fill="#8a2519" /><rect x="50" y="225" width="100" height="400" fill="#7c120d" /><rect x="0" y="375" width="250" height="100" fill="#a4962d" /><rect x="200" y="375" width="600" height="100" fill="#dac83d" /><rect x="450" y="125" width="100" height="600" fill="#dac83d" /><rect x="300" y="225" width="400" height="400" fill="#310604" /><rect x="400" y="75" width="200" height="100" fill="#a4962d" /><rect x="550" y="75" width="100" height="100" fill="#dac83d" /><rect x="50" y="175" width="100" height="500" fill="#ba6516" /><rect x="100" y="575" width="200" height="100" fill="#f7a41d" /><rect x="100" y="175" width="100" height="500" fill="#f7a41d" /><rect x="100" y="175" width="200" height="100" fill="#f7a41d" /><rect x="950" y="575" width="200" height="100" fill="#ba6516" /><rect x="1050" y="175" width="100" height="500" fill="#ba6516" /><rect x="950" y="175" width="200" height="100" fill="#ba6516" /><rect x="1000" y="575" width="200" height="100" fill="#f7a41d" /><rect x="1100" y="175" width="100" height="500" fill="#f7a41d" /><rect x="1000" y="175" width="200" height="100" fill="#f7a41d" /><rect x="350" y="475" width="100" height="300" fill="#ba6516" /><rect x="450" y="375" width="100" height="100" fill="#ba6516" /><rect x="750" y="75" width="100" height="300" fill="#ba6516" /><rect x="350" y="175" width="100" height="100" fill="#ba6516" /><rect x="400" y="475" width="100" height="300" fill="#f7a41d" /><rect x="400" y="575" width="500" height="100" fill="#f7a41d" /><rect x="500" y="375" width="300" height="100" fill="#f7a41d" /><rect x="800" y="75" width="100" height="300" fill="#f7a41d" /><rect x="400" y="175" width="500" height="100" fill="#f7a41d" /><rect x="200" y="725" width="350" height="350" fill="#8a2519" /><rect x="500" y="725" width="600" height="350" fill="#b63021" /><rect x="250" y="825" width="200" height="250" fill="#7c120d" /><rect x="600" y="825" width="400" height="250" fill="#a41711" /><rect x="200" y="1025" width="350" height="100" fill="#3a0300" /><rect x="500" y="1025" width="600" height="100" fill="#4c0300" /></svg>