<svg viewBox="0 0 1100 1100" shape-rendering="crispEdges" xmlns="http://www.w3.org/2000/svg"><rect x="0" y="75" width="800" height="600" fill="#8a2519" /><rect x="200" y="625" width="600" height="100" fill="#8a2519" /><rect x="50" y="175" width="100" height="400" fill="#7c120d" /><rect x="0" y="325" width="250" height="100" fill="#a4962d" /><rect x="200" y="325" width="600" height="100" fill="#dac83d" /><rect x="450" y="75" width="100" height="600" fill="#dac83d" /><rect x="300" y="175" width="400" height="400" fill="#310604" /><rect x="400" y="25" width="200" height="100" fill="#a4962d" /><rect x="550" y="25" width="100" height="100" fill="#dac83d" /><rect x="300" y="175" width="250" height="600" fill="#c0c0c0" /><rect x="500" y="175" width="400" height="600" fill="#ffffff" /><rect x="500" y="275" width="100" height="150" fill="#000000" /><rect x="800" y="275" width="100" height="150" fill="#000000" /><rect x="600" y="525" width="100" height="250" fill="#c00000" /><rect x="650" y="525" width="200" height="250" fill="#ff0000" /><rect x="500" y="425" width="150" height="150" fill="#715628" /><rect x="600" y="425" width="400" height="150" fill="#967234" /><rect x="500" y="375" width="150" height="100" fill="#926f33" /><rect x="600" y="375" width="400" height="100" fill="#c19343" /><rect x="200" y="675" width="350" height="350" fill="#8a2519" /><rect x="500" y="675" width="600" height="350" fill="#b63021" /><rect x="250" y="775" width="200" height="250" fill="#7c120d" /><rect x="600" y="775" width="400" height="250" fill="#a41711" /><rect x="200" y="975" width="350" height="100" fill="#3a0300" /><rect x="500" y="975" width="600" height="100" fill="#4c0300" /></svg>