<svg viewBox="0 0 750 750" shape-rendering="crispEdges" xmlns="http://www.w3.org/2000/svg"><rect x="100" y="575" width="100" height="150" fill="#b52b2b" /><rect x="0" y="525" width="100" height="100" fill="#b52b2b" /><rect x="600" y="575" width="100" height="150" fill="#b52b2b" /><rect x="300" y="375" width="100" height="200" fill="#b52b2b" /><rect x="200" y="325" width="100" height="100" fill="#b52b2b" /><rect x="100" y="225" width="100" height="100" fill="#b52b2b" /><rect x="0" y="125" width="100" height="100" fill="#b52b2b" /><rect x="200" y="125" width="100" height="100" fill="#b52b2b" /><rect x="300" y="225" width="100" height="150" fill="#b52b2b" /><rect x="500" y="25" width="100" height="350" fill="#b52b2b" /><rect x="150" y="575" width="300" height="150" fill="#f05138" /><rect x="50" y="525" width="700" height="100" fill="#f05138" /><rect x="650" y="575" width="100" height="150" fill="#f05138" /><rect x="350" y="325" width="300" height="250" fill="#f05138" /><rect x="550" y="125" width="200" height="300" fill="#f05138" /><rect x="550" y="25" width="100" height="150" fill="#f05138" /><rect x="350" y="225" width="100" height="150" fill="#f05138" /><rect x="250" y="325" width="150" height="100" fill="#f05138" /><rect x="150" y="225" width="100" height="100" fill="#f05138" /><rect x="250" y="125" width="100" height="100" fill="#f05138" /><rect x="50" y="125" width="100" height="100" fill="#f05138" /></svg>