<svg viewBox="0 0 800 800" shape-rendering="crispEdges" xmlns="http://www.w3.org/2000/svg"><rect x="0" y="75" width="100" height="600" fill="#5a1ac0" /><rect x="0" y="275" width="100" height="200" fill="#9d1fa7" /><rect x="200" y="75" width="150" height="250" fill="#9d1fa7" /><rect x="200" y="425" width="150" height="250" fill="#4727c0" /><rect x="200" y="275" width="150" height="200" fill="#1e53bf" /><rect x="450" y="225" width="150" height="250" fill="#4727c0" /><rect x="450" y="75" width="150" height="200" fill="#1e53bf" /><rect x="550" y="525" width="100" height="200" fill="#5a1ac0" /><rect x="50" y="75" width="200" height="600" fill="#9722ff" /><rect x="50" y="275" width="200" height="200" fill="#dc29dd" /><rect x="300" y="75" width="200" height="200" fill="#dc29dd" /><rect x="300" y="275" width="200" height="200" fill="#27a2fd" /><rect x="300" y="475" width="200" height="200" fill="#3344ff" /><rect x="550" y="75" width="200" height="200" fill="#27a2fd" /><rect x="550" y="275" width="200" height="200" fill="#3344ff" /><rect x="600" y="525" width="200" height="200" fill="#9722ff" /></svg>