<svg viewBox="0 0 1100 1100" shape-rendering="crispEdges" xmlns="http://www.w3.org/2000/svg"><rect x="200" y="75" width="600" height="650" fill="#1d1a14" /><rect x="300" y="175" width="400" height="400" fill="#693f05" /><rect x="0" y="75" width="250" height="600" fill="#1d1a14" /><rect x="50" y="175" width="100" height="400" fill="#865107" /><rect x="400" y="25" width="200" height="100" fill="#767676" /><rect x="550" y="25" width="100" height="100" fill="#a5a5a5" /><rect x="600" y="525" width="100" height="150" fill="#c0c0c0" /><rect x="650" y="525" width="100" height="150" fill="#ffffff" /><rect x="400" y="425" width="100" height="150" fill="#621f61" /><rect x="700" y="225" width="100" height="300" fill="#9a1a1a" /><rect x="450" y="475" width="500" height="100" fill="#82287a" /><rect x="300" y="225" width="100" height="250" fill="#9a1a1a" /><rect x="550" y="425" width="100" height="150" fill="#ffffff" /><rect x="750" y="425" width="100" height="150" fill="#ffffff" /><rect x="350" y="225" width="300" height="250" fill="#cc2236" /><rect x="750" y="225" width="300" height="250" fill="#cc2236" /><rect x="300" y="175" width="100" height="100" fill="#ba691b" /><rect x="400" y="75" width="100" height="150" fill="#ba691b" /><rect x="800" y="75" width="100" height="150" fill="#ba691b" /><rect x="700" y="175" width="100" height="100" fill="#ba691b" /><rect x="350" y="175" width="300" height="100" fill="#f69923" /><rect x="750" y="175" width="300" height="100" fill="#f69923" /><rect x="850" y="75" width="100" height="150" fill="#f69923" /><rect x="450" y="75" width="100" height="150" fill="#f69923" /><rect x="450" y="175" width="100" height="300" fill="#ffffff" /><rect x="850" y="175" width="100" height="300" fill="#ffffff" /><rect x="200" y="675" width="350" height="400" fill="#1d1a14" /><rect x="250" y="775" width="200" height="200" fill="#865107" /><rect x="500" y="675" width="600" height="400" fill="#453c2f" /><rect x="600" y="775" width="400" height="200" fill="#a76e1f" /></svg>