<svg viewBox="0 0 1100 1100" xmlns="http://www.w3.org/2000/svg"><rect x="0" y="100" width="800" height="600" fill="#8a2519" /><rect x="200" y="650" width="600" height="100" fill="#8a2519" /><rect x="50" y="200" width="100" height="400" fill="#7c120d" /><rect x="0" y="350" width="250" height="100" fill="#a4962d" /><rect x="200" y="350" width="600" height="100" fill="#dac83d" /><rect x="450" y="100" width="100" height="600" fill="#dac83d" /><rect x="300" y="200" width="400" height="400" fill="#310604" /><rect x="400" y="50" width="200" height="100" fill="#a4962d" /><rect x="550" y="50" width="100" height="100" fill="#dac83d" /><rect x="350" y="700" width="250" height="150" fill="#0a0a0b" /><rect x="550" y="700" width="400" height="150" fill="#0d0c0e" /><rect x="400" y="700" width="50" height="150" fill="#650271" /><rect x="750" y="700" width="100" height="150" fill="#850296" /><rect x="500" y="250" width="150" height="150" fill="#1d1c1f" /><rect x="600" y="250" width="200" height="150" fill="#262429" /><rect x="350" y="350" width="250" height="150" fill="#1d1c1f" /><rect x="550" y="350" width="400" height="150" fill="#262429" /><rect x="400" y="350" width="50" height="150" fill="#650271" /><rect x="650" y="350" width="100" height="150" fill="#850296" /><rect x="200" y="450" width="350" height="300" fill="#131215" /><rect x="500" y="450" width="600" height="300" fill="#19171b" /><rect x="350" y="650" width="50" height="100" fill="#650271" /><rect x="400" y="550" width="50" height="100" fill="#650271" /><rect x="200" y="550" width="50" height="100" fill="#650271" /><rect x="300" y="450" width="50" height="100" fill="#650271" /><rect x="600" y="550" width="100" height="100" fill="#850296" /><rect x="900" y="450" width="100" height="100" fill="#850296" /><rect x="1000" y="650" width="100" height="100" fill="#850296" /><rect x="200" y="700" width="350" height="350" fill="#8a2519" /><rect x="500" y="700" width="600" height="350" fill="#b63021" /><rect x="250" y="800" width="200" height="250" fill="#7c120d" /><rect x="600" y="800" width="400" height="250" fill="#a41711" /><rect x="200" y="1000" width="350" height="100" fill="#3a0300" /><rect x="500" y="1000" width="600" height="100" fill="#4c0300" /></svg>